<?xml version="1.0" encoding="UTF-8"?>
<svg id="_레이어_1" data-name="레이어_1" xmlns="http://www.w3.org/2000/svg" version="1.1" viewBox="0 0 448 128">
  <!-- Generator: Adobe Illustrator 29.2.0, SVG Export Plug-In . SVG Version: 2.1.0 Build 108)  -->
  <defs>
    <style>
      .st0, .st1 {
        fill: #fff;
      }

      .st1 {
        fill-rule: evenodd;
      }

      .st2 {
        fill: #e22f12;
      }

      .st3 {
        fill: none;
        stroke: #fff;
        stroke-miterlimit: 10;
        stroke-width: .25px;
      }
    </style>
  </defs>
  <rect class="st2" width="448" height="128"/>
  <g>
    <path class="st0" d="M70.92,21.37c9.95-.02,17.81,6.45,15.73,18.08-1.45,7.83-5.18,13.07-11.66,16.36,7.67,3.19,10.42,8.15,8.7,18.02-3.44,18.82-19.59,22.49-24.43,22.5l-35.23.05,13.39-74.96,33.49-.06ZM46.71,63.14l-3.52,19.63,14.33-.02c5.29,0,8.75-4.63,9.75-10.15.9-4.88-.56-9.49-6.31-9.49l-14.24.02ZM51.77,34.99l-2.62,14.65,12.05-.02c3.92,0,7.48-2.23,8.47-7.64.82-4.63-1.01-6.85-5.3-7.01l-12.6.02Z"/>
    <path class="st3" d="M70.92,21.37c9.95-.02,17.81,6.45,15.73,18.08-1.45,7.83-5.18,13.07-11.66,16.36,7.67,3.19,10.42,8.15,8.7,18.02-3.44,18.82-19.59,22.49-24.43,22.5l-35.23.05,13.39-74.96,33.49-.06ZM46.71,63.14l-3.52,19.63,14.33-.02c5.29,0,8.75-4.63,9.75-10.15.9-4.88-.56-9.49-6.31-9.49l-14.24.02ZM51.77,34.99l-2.62,14.65,12.05-.02c3.92,0,7.48-2.23,8.47-7.64.82-4.63-1.01-6.85-5.3-7.01l-12.6.02Z"/>
    <path class="st0" d="M131.04,51.28c-9.49.02-18.43,3.41-20.06,12.64l-4.79,26.65c-.73,3.91-2.91,5.69-7.02,5.7l-10.58.02,10.31-57.56,16.61-.03-.63,3.63c3.92-2.94,10.48-4.55,18.61-4.56l-2.44,13.51Z"/>
    <path class="st3" d="M131.04,51.28c-9.49.02-18.43,3.41-20.06,12.64l-4.79,26.65c-.73,3.91-2.91,5.69-7.02,5.7l-10.58.02,10.31-57.56,16.61-.03-.63,3.63c3.92-2.94,10.48-4.55,18.61-4.56l-2.44,13.51Z"/>
    <path class="st0" d="M182.56,67.18c-2.89,16.07-12.73,30.31-31.25,30.34-18.53.03-23.02-14.26-20.22-30.25,2.8-15.91,12.54-30.04,30.98-30.07,18.43-.03,23.38,13.99,20.49,29.98M147.69,67.24c-1.45,7.91-1.43,16.79,5.96,16.77h.09c7.3-.01,10.75-8.72,12.11-16.54,1.44-7.9,1.34-16.79-6.05-16.77-7.48.01-10.75,8.99-12.11,16.54"/>
    <path class="st3" d="M182.56,67.18c-2.89,16.07-12.73,30.31-31.25,30.34-18.53.03-23.02-14.26-20.22-30.25,2.8-15.91,12.54-30.04,30.98-30.07,18.43-.03,23.38,13.99,20.49,29.98ZM147.69,67.24c-1.45,7.91-1.43,16.79,5.96,16.77h.09c7.3-.01,10.75-8.72,12.11-16.54,1.44-7.9,1.34-16.79-6.05-16.77-7.48.01-10.75,8.99-12.11,16.54Z"/>
    <path class="st0" d="M211.64,38.45l-.46,2.31c4.02-2.41,7.12-3.39,11.22-3.4,5.47-.01,9.23,2.2,12.33,6.11,4.37-3.92,8.49-6.15,14.68-6.16,10.32-.01,15.8,6.91,14.27,15.62l-6.7,37.39c-.72,3.91-3,5.69-7.02,5.69l-10.68.02,6.88-37.93c.81-4.61-.47-7.19-3.85-7.19-3.29,0-5.47,2.59-6.38,7.39l-5.69,32.06c-.73,3.92-3.01,5.69-7.02,5.7h-10.59s6.79-37.56,6.79-37.56c.9-4.98-.93-7.56-4.76-7.55-3.37,0-5.93,2.69-6.83,7.57l-5.7,31.89c-.73,3.92-2.91,5.69-6.93,5.69l-10.58.02,10.31-57.65,16.7-.03Z"/>
    <path class="st3" d="M211.64,38.45l-.46,2.31c4.02-2.41,7.12-3.39,11.22-3.4,5.47-.01,9.23,2.2,12.33,6.11,4.37-3.92,8.49-6.15,14.68-6.16,10.32-.01,15.8,6.91,14.27,15.62l-6.7,37.39c-.72,3.91-3,5.69-7.02,5.69l-10.68.02,6.88-37.93c.81-4.61-.47-7.19-3.85-7.19-3.29,0-5.47,2.59-6.38,7.39l-5.69,32.06c-.73,3.92-3.01,5.69-7.02,5.7h-10.59s6.79-37.56,6.79-37.56c.9-4.98-.93-7.56-4.76-7.55-3.37,0-5.93,2.69-6.83,7.57l-5.7,31.89c-.73,3.92-2.91,5.69-6.93,5.69l-10.58.02,10.31-57.65,16.7-.03Z"/>
    <path class="st0" d="M299.7,20.99c-2.74,1.68-5.47,6.04-6.55,11.82l-10.31,57.56c-.63,3.82-2.91,5.59-6.93,5.6l-10.77.02,13.38-74.96,21.18-.04Z"/>
    <path class="st3" d="M299.7,20.99c-2.74,1.68-5.47,6.04-6.55,11.82l-10.31,57.56c-.63,3.82-2.91,5.59-6.93,5.6l-10.77.02,13.38-74.96,21.18-.04Z"/>
    <path class="st0" d="M341.99,90.18c-.72,3.92-3,5.69-7.01,5.7l-10.68.02.72-3.91c-4.82,3.38-9.39,4.73-15.23,4.73-9.68.02-16.63-5.75-14.91-15.43,2.63-14.93,17.31-20.46,35.29-22.79.99-5.95-.47-8.25-5.41-8.25-2.65,0-6.01,1.96-7.29,6.76l-17.07.03c3.27-11.64,12.11-19.11,26.35-19.76,16.06-.74,23.47,6.89,20.93,21.01l-5.7,31.89ZM311.21,79.49c-.73,2.84,1.1,4.7,4.66,4.34,4.38-.45,11.67-4.45,13.21-13.08-10.58,1.17-16.88,4.83-17.88,8.74"/>
    <path class="st3" d="M341.99,90.18c-.72,3.92-3,5.69-7.01,5.7l-10.68.02.72-3.91c-4.82,3.38-9.39,4.73-15.23,4.73-9.68.02-16.63-5.75-14.91-15.43,2.63-14.93,17.31-20.46,35.29-22.79.99-5.95-.47-8.25-5.41-8.25-2.65,0-6.01,1.96-7.29,6.76l-17.07.03c3.27-11.64,12.11-19.11,26.35-19.76,16.06-.74,23.47,6.89,20.93,21.01l-5.7,31.89ZM311.21,79.49c-.73,2.84,1.1,4.7,4.66,4.34,4.38-.45,11.67-4.45,13.21-13.08-10.58,1.17-16.88,4.83-17.88,8.74Z"/>
    <path class="st0" d="M365.74,92.81l-.54,3.11-16.61.03,13.29-75.06,16.71-.03-3.62,20.52c3.74-2.85,7.84-4.64,13.41-4.56,15.52.33,18.28,14.89,15.48,30.53-2.44,13.51-11.18,28.88-27.06,29.71-7.03.37-9.68-2.03-11.05-4.24M387.42,66.75c1.89-10.56.97-16.7-5.6-16.24-5.84.37-9.58,5.71-11.47,16.27-1.9,10.74-1.17,16.69,5.5,16.68,6.66-.01,9.66-5.96,11.57-16.71"/>
    <path class="st3" d="M365.74,92.81l-.54,3.11-16.61.03,13.29-75.06,16.71-.03-3.62,20.52c3.74-2.85,7.84-4.64,13.41-4.56,15.52.33,18.28,14.89,15.48,30.53-2.44,13.51-11.18,28.88-27.06,29.71-7.03.37-9.68-2.03-11.05-4.24ZM387.42,66.75c1.89-10.56.97-16.7-5.6-16.24-5.84.37-9.58,5.71-11.47,16.27-1.9,10.74-1.17,16.69,5.5,16.68,6.66-.01,9.66-5.96,11.57-16.71Z"/>
    <path class="st1" d="M416.46,100.55l2.99,4.22-1.61.04-2.97-4.22-1.6.04.09,4.29-1.34.03-.2-9.28,4.16-.09c1.72-.04,3.41.38,3.45,2.38.04,1.83-1.26,2.53-2.96,2.61M413.23,99.31l1.61-.03c1.19-.03,3.28.14,3.25-1.34-.02-.96-1.33-1.1-2.35-1.08l-2.55.06.05,2.39Z"/>
    <path class="st1" d="M415.81,108.75c-4.88.37-9.03-3.09-9.38-7.8-.35-4.71,3.23-8.75,8.12-9.12,4.89-.37,9.04,3.09,9.39,7.8.35,4.71-3.24,8.75-8.12,9.11M415.71,107.45c4-.3,7.18-3.72,6.88-7.71-.3-3.99-3.96-6.9-7.95-6.6-3.99.3-7.17,3.72-6.87,7.71.3,3.99,3.95,6.9,7.94,6.6"/>
  </g>
</svg>