<?xml version="1.0" encoding="UTF-8"?>
<svg id="_레이어_1" data-name="레이어_1" xmlns="http://www.w3.org/2000/svg" version="1.1" viewBox="0 0 265.53 64.66">
  <!-- Generator: Adobe Illustrator 29.2.0, SVG Export Plug-In . SVG Version: 2.1.0 Build 108)  -->
  <defs>
    <style>
      .st0, .st1, .st2 {
        fill: #fff;
      }

      .st1 {
        fill-rule: evenodd;
      }

      .st2 {
        stroke: #fff;
        stroke-miterlimit: 10;
        stroke-width: .25px;
      }
    </style>
  </defs>
  <path class="st0" d="M32.88,3.97c6.5-.01,11.62,4.21,10.27,11.8-.95,5.11-3.38,8.53-7.61,10.68,5,2.08,6.8,5.32,5.68,11.76-2.24,12.28-12.78,14.68-15.94,14.68l-22.99.04L11.02,4.01l21.86-.04ZM17.08,31.24l-2.3,12.81h9.35c3.46-.02,5.71-3.04,6.36-6.64.58-3.19-.37-6.2-4.12-6.19h-9.29ZM20.38,12.86l-1.71,9.56h7.86c2.56-.01,4.88-1.47,5.53-5,.53-3.02-.66-4.47-3.46-4.58h-8.22Z"/>
  <path class="st2" d="M32.88,3.97c6.5-.01,11.62,4.21,10.27,11.8-.95,5.11-3.38,8.53-7.61,10.68,5,2.08,6.8,5.32,5.68,11.76-2.24,12.28-12.78,14.68-15.94,14.68l-22.99.04L11.02,4.01l21.86-.04ZM17.08,31.24l-2.3,12.81h9.35c3.46-.02,5.71-3.04,6.36-6.64.58-3.19-.37-6.2-4.12-6.19h-9.29ZM20.38,12.86l-1.71,9.56h7.86c2.56-.01,4.88-1.47,5.53-5,.53-3.02-.66-4.47-3.46-4.58h-8.22Z"/>
  <path class="st0" d="M72.11,23.49c-6.19.01-12.03,2.22-13.09,8.25l-3.12,17.39c-.48,2.56-1.9,3.71-4.59,3.72h-6.91s6.72-37.55,6.72-37.55l10.84-.02-.41,2.37c2.56-1.92,6.84-2.97,12.14-2.98l-1.59,8.81Z"/>
  <path class="st2" d="M72.11,23.49c-6.19.01-12.03,2.22-13.09,8.25l-3.12,17.39c-.48,2.56-1.9,3.71-4.59,3.72h-6.91s6.72-37.55,6.72-37.55l10.84-.02-.41,2.37c2.56-1.92,6.84-2.97,12.14-2.98l-1.59,8.81Z"/>
  <path class="st0" d="M105.73,33.87c-1.89,10.49-8.31,19.78-20.4,19.8-12.09.02-15.02-9.31-13.19-19.74,1.83-10.38,8.19-19.6,20.22-19.62,12.03-.02,15.26,9.13,13.37,19.57M82.98,33.91c-.94,5.16-.93,10.96,3.89,10.95h.06c4.77,0,7.02-5.69,7.9-10.79.94-5.16.88-10.96-3.95-10.95-4.88,0-7.02,5.87-7.91,10.79"/>
  <path class="st2" d="M105.73,33.87c-1.89,10.49-8.31,19.78-20.4,19.8-12.09.02-15.02-9.31-13.19-19.74,1.83-10.38,8.19-19.6,20.22-19.62,12.03-.02,15.26,9.13,13.37,19.57ZM82.98,33.91c-.94,5.16-.93,10.96,3.89,10.95h.06c4.77,0,7.02-5.69,7.9-10.79.94-5.16.88-10.96-3.95-10.95-4.88,0-7.02,5.87-7.91,10.79Z"/>
  <path class="st0" d="M124.71,15.13l-.3,1.51c2.62-1.57,4.65-2.22,7.32-2.22,3.57,0,6.02,1.44,8.05,3.99,2.86-2.56,5.54-4.01,9.58-4.02,6.73,0,10.31,4.51,9.31,10.19l-4.37,24.4c-.47,2.55-1.96,3.71-4.58,3.71h-6.97s4.49-24.74,4.49-24.74c.53-3.01-.31-4.69-2.51-4.69-2.15,0-3.57,1.69-4.16,4.82l-3.72,20.93c-.47,2.55-1.96,3.71-4.58,3.72h-6.91s4.43-24.51,4.43-24.51c.59-3.25-.6-4.93-3.11-4.93-2.2,0-3.87,1.76-4.46,4.94l-3.72,20.81c-.48,2.56-1.9,3.72-4.53,3.72l-6.91.02,6.73-37.62,10.9-.02Z"/>
  <path class="st2" d="M124.71,15.13l-.3,1.51c2.62-1.57,4.65-2.22,7.32-2.22,3.57,0,6.02,1.44,8.05,3.99,2.86-2.56,5.54-4.01,9.58-4.02,6.73,0,10.31,4.51,9.31,10.19l-4.37,24.4c-.47,2.55-1.96,3.71-4.58,3.71h-6.97s4.49-24.74,4.49-24.74c.53-3.01-.31-4.69-2.51-4.69-2.15,0-3.57,1.69-4.16,4.82l-3.72,20.93c-.47,2.55-1.96,3.71-4.58,3.72h-6.91s4.43-24.51,4.43-24.51c.59-3.25-.6-4.93-3.11-4.93-2.2,0-3.87,1.76-4.46,4.94l-3.72,20.81c-.48,2.56-1.9,3.72-4.53,3.72l-6.91.02,6.73-37.62,10.9-.02Z"/>
  <path class="st0" d="M182.18,3.73c-1.79,1.1-3.57,3.94-4.28,7.71l-6.73,37.57c-.41,2.49-1.9,3.65-4.52,3.66h-7.03s8.73-48.91,8.73-48.91l13.82-.02Z"/>
  <path class="st2" d="M182.18,3.73c-1.79,1.1-3.57,3.94-4.28,7.71l-6.73,37.57c-.41,2.49-1.9,3.65-4.52,3.66h-7.03s8.73-48.91,8.73-48.91l13.82-.02Z"/>
  <path class="st0" d="M209.78,48.88c-.47,2.56-1.96,3.71-4.58,3.72h-6.97s.47-2.54.47-2.54c-3.15,2.21-6.13,3.08-9.94,3.09-6.32.01-10.85-3.75-9.73-10.07,1.71-9.74,11.3-13.35,23.03-14.87.65-3.88-.31-5.39-3.53-5.38-1.73,0-3.93,1.28-4.76,4.41l-11.14.02c2.14-7.6,7.9-12.47,17.19-12.89,10.48-.48,15.32,4.5,13.66,13.71l-3.72,20.81ZM189.7,41.9c-.48,1.85.72,3.07,3.04,2.83,2.86-.29,7.62-2.9,8.62-8.53-6.91.76-11.02,3.15-11.67,5.7"/>
  <path class="st2" d="M209.78,48.88c-.47,2.56-1.96,3.71-4.58,3.72h-6.97s.47-2.54.47-2.54c-3.15,2.21-6.13,3.08-9.94,3.09-6.32.01-10.85-3.75-9.73-10.07,1.71-9.74,11.3-13.35,23.03-14.87.65-3.88-.31-5.39-3.53-5.38-1.73,0-3.93,1.28-4.76,4.41l-11.14.02c2.14-7.6,7.9-12.47,17.19-12.89,10.48-.48,15.32,4.5,13.66,13.71l-3.72,20.81ZM189.7,41.9c-.48,1.85.72,3.07,3.04,2.83,2.86-.29,7.62-2.9,8.62-8.53-6.91.76-11.02,3.15-11.67,5.7Z"/>
  <path class="st0" d="M225.28,50.6l-.35,2.03-10.84.02,8.67-48.98,10.9-.02-2.36,13.4c2.44-1.86,5.12-3.03,8.75-2.98,10.13.22,11.93,9.72,10.1,19.92-1.59,8.82-7.3,18.85-17.66,19.39-4.59.24-6.31-1.32-7.21-2.77M239.43,33.59c1.24-6.89.63-10.9-3.65-10.6-3.81.24-6.25,3.73-7.49,10.62-1.24,7.01-.76,10.9,3.59,10.89,4.34,0,6.31-3.89,7.55-10.91"/>
  <path class="st2" d="M225.28,50.6l-.35,2.03-10.84.02,8.67-48.98,10.9-.02-2.36,13.4c2.44-1.86,5.12-3.03,8.75-2.98,10.13.22,11.93,9.72,10.1,19.92-1.59,8.82-7.3,18.85-17.66,19.39-4.59.24-6.31-1.32-7.21-2.77ZM239.43,33.59c1.24-6.89.63-10.9-3.65-10.6-3.81.24-6.25,3.73-7.49,10.62-1.24,7.01-.76,10.9,3.59,10.89,4.34,0,6.31-3.89,7.55-10.91Z"/>
  <path class="st1" d="M258.38,55.65l1.95,2.75-1.05.02-1.93-2.76-1.05.03.06,2.8-.88.02-.13-6.06,2.71-.06c1.12-.02,2.23.25,2.26,1.55.03,1.19-.82,1.65-1.93,1.7M256.27,54.84l1.05-.02c.77-.02,2.14.09,2.12-.87-.01-.63-.86-.72-1.54-.7l-1.67.04.04,1.56Z"/>
  <path class="st1" d="M257.96,61c-3.19.24-5.89-2.02-6.13-5.09-.23-3.07,2.11-5.71,5.3-5.95,3.19-.24,5.89,2.02,6.13,5.09.23,3.07-2.11,5.71-5.3,5.95M257.89,60.15c2.61-.2,4.68-2.43,4.49-5.03-.2-2.61-2.58-4.5-5.19-4.31-2.61.19-4.68,2.43-4.48,5.03.19,2.6,2.58,4.5,5.19,4.31"/>
</svg>